<svg xmlns="http://www.w3.org/2000/svg" xmlns:xlink="http://www.w3.org/1999/xlink" xmlns:shaper="http://www.shapertools.com/namespaces/shaper" shaper:fusionaddin="version:1.9.0" width="9.8cm" height="6.1cm" version="1.1" x="0cm" y="0cm" viewBox="0 0 9.8 6.1" enable-background="new 0 0 9.8 6.1" xml:space="preserve" transform="matrix(-1,1.2246467991473532e-16,-1.2246467991473532e-16,-1,0,0)"><path d="M-1.45625,0.975 A0.05,0.05 90 0,0 -1.40625,0.925 L-1.40625,-2.83 A0.05,0.05 0 0,0 -1.45625,-2.88 L-7.11625,-2.88 A0.05,0.05 270 0,0 -7.16625,-2.83 L-7.16625,0.925 A0.05,0.05 180 0,0 -7.11625,0.975 L-1.45625,0.975z" transform="matrix(1,0,0,-1,7.86625,1.555)" stroke="rgb(100,100,100)" stroke-width="0.0010cm" stroke-linecap="round" stroke-linejoin="round" fill="none"></path><path d="M-1.853,-3.0805 L-6.7805,-3.0805 A0.05,0.05 90 0,1 -6.8305,-3.1305 L-6.8305,-3.6785 A0.05,0.05 180 0,1 -6.7805,-3.7285 L-1.853,-3.7285 A0.05,0.05 270 0,1 -1.803,-3.6785 L-1.803,-3.1305 A0.05,0.05 0 0,1 -1.853,-3.0805z" transform="matrix(1,0,0,-1,7.86625,1.555)" stroke="rgb(100,100,100)" stroke-width="0.0010cm" stroke-linecap="round" stroke-linejoin="round" fill="none"></path><path d="M-0.658218,-2.843 L-1.3195,-2.843 A0.15,0.15 90 0,1 -1.4695,-2.993 L-1.4695,-3.846 A0.15,0.15 180 0,1 -1.3195,-3.996 L1.2245,-3.996 A0.15,0.15 270 0,1 1.3745,-3.846 L1.3745,-2.993 A0.15,0.15 0 0,1 1.2245,-2.843 L0.658218,-2.843 A1.15,1.15 304.9152062 0,1 0.6832825,-0.975 L0.925,-0.975 A0.05,0.05 270 0,1 0.975,-0.925 L0.975,0.925 A0.05,0.05 0 0,1 0.925,0.975 L-0.925,0.975 A0.05,0.05 90 0,1 -0.975,0.925 L-0.975,-0.925 A0.05,0.05 180 0,1 -0.925,-0.975 L-0.6832825,-0.975 A1.15,1.15 126.4526818 0,1 -0.658218,-2.843z" transform="matrix(1,0,0,-1,7.86625,1.555)" stroke="rgb(100,100,100)" stroke-width="0.0010cm" stroke-linecap="round" stroke-linejoin="round" fill="none"></path><path d="M-7.61625,-4.3035786 L1.68375,-4.3035786 A0.0085786,0.0085786 270 0,1 1.6923286,-4.295 L1.6923286,1.305 A0.0085786,0.0085786 0 0,1 1.68375,1.3135786 L-7.61625,1.3135786 A0.0085786,0.0085786 90 0,1 -7.6248286,1.305 L-7.6248286,-4.295 A0.0085786,0.0085786 180 0,1 -7.61625,-4.3035786z" transform="matrix(1,0,0,-1,7.86625,1.555)" stroke="rgb(100,100,100)" stroke-width="0.0010cm" stroke-linecap="round" stroke-linejoin="round" fill="none"></path><path d="M0.7334203,-2.056827 A0.75,0.75 347.9302315 0,0 0.7135741,-2.130894 A0.075,0.075 342.0697685 0,0 0.6616281,-2.180249 L0.6531819,-2.1825122 0.6495771,-2.1834781 A0.1,0.1 105.0000006 0,1 0.5888565,-2.2300707 L0.5802778,-2.2449293 A0.1,0.1 150 0,1 0.5702878,-2.3208112 L0.5712537,-2.324416 0.5735168,-2.3328622 A0.075,0.075 14.9999774 0,0 0.5567471,-2.4025263 A0.75,0.75 317.9302315 0,0 0.5025263,-2.4567471 A0.075,0.075 312.0697685 0,0 0.4328622,-2.4735168 L0.424416,-2.4712537 0.4208112,-2.4702878 A0.1,0.1 75.0000006 0,1 0.3449293,-2.4802778 L0.3300707,-2.4888565 A0.1,0.1 120 0,1 0.2834781,-2.5495771 L0.2825122,-2.5531819 0.280249,-2.5616281 A0.075,0.075 344.9999774 0,0 0.230894,-2.6135741 A0.75,0.75 287.9302315 0,0 0.156827,-2.6334203 A0.075,0.075 282.0697685 0,0 0.0881113,-2.6131113 L0.0819282,-2.6069282 0.0792893,-2.6042893 A0.1,0.1 45.0000006 0,1 0.0085786,-2.575 L-0.0085786,-2.575 A0.1,0.1 90 0,1 -0.0792893,-2.6042893 L-0.0819282,-2.6069282 -0.0881113,-2.6131113 A0.075,0.075 314.9999774 0,0 -0.156827,-2.6334203 A0.75,0.75 257.9302315 0,0 -0.230894,-2.6135741 A0.075,0.075 252.0697685 0,0 -0.280249,-2.5616281 L-0.2825122,-2.5531819 -0.2834781,-2.5495771 A0.1,0.1 15.0000006 0,1 -0.3300707,-2.4888565 L-0.3449293,-2.4802778 A0.1,0.1 60 0,1 -0.4208112,-2.4702878 L-0.424416,-2.4712537 -0.4328622,-2.4735168 A0.075,0.075 284.9999774 0,0 -0.5025263,-2.4567471 A0.75,0.75 227.9302315 0,0 -0.5567471,-2.4025263 A0.075,0.075 222.0697685 0,0 -0.5735168,-2.3328622 L-0.5712537,-2.324416 -0.5702878,-2.3208112 A0.1,0.1 345.0000006 0,1 -0.5802778,-2.2449293 L-0.5888565,-2.2300707 A0.1,0.1 30 0,1 -0.6495771,-2.1834781 L-0.6531819,-2.1825122 -0.6616281,-2.180249 A0.075,0.075 254.9999774 0,0 -0.7135741,-2.130894 A0.75,0.75 197.9302315 0,0 -0.7334203,-2.056827 A0.075,0.075 192.0697685 0,0 -0.7131113,-1.9881113 L-0.7069282,-1.9819282 -0.7042893,-1.9792893 A0.1,0.1 315.0000006 0,1 -0.675,-1.9085786 L-0.675,-1.8914214 A0.1,0.1 0 0,1 -0.7042893,-1.8207107 L-0.7069282,-1.8180718 -0.7131113,-1.8118887 A0.075,0.075 224.9999774 0,0 -0.7334203,-1.743173 A0.75,0.75 167.9302315 0,0 -0.7135741,-1.669106 A0.075,0.075 162.0697685 0,0 -0.6616281,-1.619751 L-0.6531819,-1.6174878 -0.6495771,-1.6165219 A0.1,0.1 285.0000006 0,1 -0.5888565,-1.5699293 L-0.5802778,-1.5550707 A0.1,0.1 330 0,1 -0.5702878,-1.4791888 L-0.5712537,-1.475584 -0.5735168,-1.4671378 A0.075,0.075 194.9999774 0,0 -0.5567471,-1.3974737 A0.75,0.75 137.9302315 0,0 -0.5025263,-1.3432529 A0.075,0.075 132.0697685 0,0 -0.4328622,-1.3264832 L-0.424416,-1.3287463 -0.4208112,-1.3297122 A0.1,0.1 255.0000006 0,1 -0.3449293,-1.3197222 L-0.3300707,-1.3111435 A0.1,0.1 300 0,1 -0.2834781,-1.2504229 L-0.2825122,-1.2468181 -0.280249,-1.2383719 A0.075,0.075 164.9999774 0,0 -0.230894,-1.1864259 A0.75,0.75 107.9302315 0,0 -0.156827,-1.1665797 A0.075,0.075 102.0697685 0,0 -0.0881113,-1.1868887 L-0.0819282,-1.1930718 -0.0792893,-1.1957107 A0.1,0.1 225.0000006 0,1 -0.0085786,-1.225 L0.0085786,-1.225 A0.1,0.1 270 0,1 0.0792893,-1.1957107 L0.0819282,-1.1930718 0.0881113,-1.1868887 A0.075,0.075 134.9999774 0,0 0.156827,-1.1665797 A0.75,0.75 77.9302315 0,0 0.230894,-1.1864259 A0.075,0.075 72.0697685 0,0 0.280249,-1.2383719 L0.2825122,-1.2468181 0.2834781,-1.2504229 A0.1,0.1 195.0000006 0,1 0.3300707,-1.3111435 L0.3449293,-1.3197222 A0.1,0.1 240 0,1 0.4208112,-1.3297122 L0.424416,-1.3287463 0.4328622,-1.3264832 A0.075,0.075 104.9999774 0,0 0.5025263,-1.3432529 A0.75,0.75 47.9302315 0,0 0.5567471,-1.3974737 A0.075,0.075 42.0697685 0,0 0.5735168,-1.4671378 L0.5712537,-1.475584 0.5702878,-1.4791888 A0.1,0.1 165.0000006 0,1 0.5802778,-1.5550707 L0.5888565,-1.5699293 A0.1,0.1 210 0,1 0.6495771,-1.6165219 L0.6531819,-1.6174878 0.6616281,-1.619751 A0.075,0.075 74.9999774 0,0 0.7135741,-1.669106 A0.75,0.75 17.9302315 0,0 0.7334203,-1.743173 A0.075,0.075 12.0697685 0,0 0.7131113,-1.8118887 L0.7069282,-1.8180718 0.7042893,-1.8207107 A0.1,0.1 135.0000007 0,1 0.675,-1.8914214 L0.675,-1.9085786 A0.1,0.1 180 0,1 0.7042893,-1.9792893 L0.7069282,-1.9819282 0.7131113,-1.9881113 A0.075,0.075 44.9999774 0,0 0.7334203,-2.056827z" transform="matrix(1,0,0,-1,7.86625,1.555)" stroke="rgb(100,100,100)" stroke-width="0.0010cm" stroke-linecap="round" stroke-linejoin="round" fill="none"></path><path d="M-1.49125,-0.995 L-3.27125,-0.995 A0.02,0.02 90 0,1 -3.29125,-1.015 L-3.29125,-2.795 A0.02,0.02 180 0,1 -3.27125,-2.815 L-1.49125,-2.815 A0.02,0.02 270 0,1 -1.47125,-2.795 L-1.47125,-1.015 A0.02,0.02 0 0,1 -1.49125,-0.995z" transform="matrix(1,0,0,-1,7.86625,1.555)" stroke="rgb(100,100,100)" stroke-width="0.0010cm" stroke-linecap="round" stroke-linejoin="round" fill="none"></path><path d="M-3.39625,-0.995 L-5.17625,-0.995 A0.02,0.02 90 0,1 -5.19625,-1.015 L-5.19625,-2.795 A0.02,0.02 180 0,1 -5.17625,-2.815 L-3.39625,-2.815 A0.02,0.02 270 0,1 -3.37625,-2.795 L-3.37625,-1.015 A0.02,0.02 0 0,1 -3.39625,-0.995z" transform="matrix(1,0,0,-1,7.86625,1.555)" stroke="rgb(100,100,100)" stroke-width="0.0010cm" stroke-linecap="round" stroke-linejoin="round" fill="none"></path><path d="M-5.30125,-0.995 L-7.08125,-0.995 A0.02,0.02 90 0,1 -7.10125,-1.015 L-7.10125,-2.795 A0.02,0.02 180 0,1 -7.08125,-2.815 L-5.30125,-2.815 A0.02,0.02 270 0,1 -5.28125,-2.795 L-5.28125,-1.015 A0.02,0.02 0 0,1 -5.30125,-0.995z" transform="matrix(1,0,0,-1,7.86625,1.555)" stroke="rgb(100,100,100)" stroke-width="0.0010cm" stroke-linecap="round" stroke-linejoin="round" fill="none"></path><path d="M-5.30125,0.91 L-7.08125,0.91 A0.02,0.02 90 0,1 -7.10125,0.89 L-7.10125,-0.89 A0.02,0.02 180 0,1 -7.08125,-0.91 L-5.30125,-0.91 A0.02,0.02 270 0,1 -5.28125,-0.89 L-5.28125,0.89 A0.02,0.02 0 0,1 -5.30125,0.91z" transform="matrix(1,0,0,-1,7.86625,1.555)" stroke="rgb(100,100,100)" stroke-width="0.0010cm" stroke-linecap="round" stroke-linejoin="round" fill="none"></path><path d="M-3.39625,0.91 L-5.17625,0.91 A0.02,0.02 90 0,1 -5.19625,0.89 L-5.19625,-0.89 A0.02,0.02 180 0,1 -5.17625,-0.91 L-3.39625,-0.91 A0.02,0.02 270 0,1 -3.37625,-0.89 L-3.37625,0.89 A0.02,0.02 0 0,1 -3.39625,0.91z" transform="matrix(1,0,0,-1,7.86625,1.555)" stroke="rgb(100,100,100)" stroke-width="0.0010cm" stroke-linecap="round" stroke-linejoin="round" fill="none"></path><path d="M-1.49125,0.91 L-3.27125,0.91 A0.02,0.02 90 0,1 -3.29125,0.89 L-3.29125,-0.89 A0.02,0.02 180 0,1 -3.27125,-0.91 L-1.49125,-0.91 A0.02,0.02 270 0,1 -1.47125,-0.89 L-1.47125,0.89 A0.02,0.02 0 0,1 -1.49125,0.91z" transform="matrix(1,0,0,-1,7.86625,1.555)" stroke="rgb(100,100,100)" stroke-width="0.0010cm" stroke-linecap="round" stroke-linejoin="round" fill="none"></path><path d="M0.89,0.91 L-0.89,0.91 A0.02,0.02 90 0,1 -0.91,0.89 L-0.91,-0.89 A0.02,0.02 180 0,1 -0.89,-0.91 L0.89,-0.91 A0.02,0.02 270 0,1 0.91,-0.89 L0.91,0.89 A0.02,0.02 0 0,1 0.89,0.91z" transform="matrix(1,0,0,-1,7.86625,1.555)" stroke="rgb(100,100,100)" stroke-width="0.0010cm" stroke-linecap="round" stroke-linejoin="round" fill="none"></path><path d="M-1.40625,-2.83 L-1.40625,0.925 A0.05,0.05 0 0,1 -1.45625,0.975 L-7.11625,0.975 A0.05,0.05 90 0,1 -7.16625,0.925 L-7.16625,-2.83 A0.05,0.05 180 0,1 -7.11625,-2.88 L-1.45625,-2.88 A0.05,0.05 270 0,1 -1.40625,-2.83z" transform="matrix(1,0,0,-1,7.86625,1.555)" stroke="rgb(100,100,100)" stroke-width="0.0010cm" stroke-linecap="round" stroke-linejoin="round" fill="none"></path><path d="M-0.925,-0.975 L-0.5804093,-0.975 A0.05,0.05 90 0,0 -0.5527708,-1.0666667 A1,1 123.5573098 0,1 -0.5260135,-2.7504762 A0.05,0.05 58.2635003 0,0 -0.5523142,-2.843 L-1.3195,-2.843 A0.15,0.15 90 0,1 -1.4695,-2.993 L-1.4695,-3.846 A0.15,0.15 180 0,1 -1.3195,-3.996 L1.2245,-3.996 A0.15,0.15 270 0,1 1.3745,-3.846 L1.3745,-2.993 A0.15,0.15 0 0,1 1.2245,-2.843 L0.5523142,-2.843 A0.05,0.05 270 0,0 0.5260135,-2.7504762 A1,1 301.7364997 0,1 0.5527708,-1.0666667 A0.05,0.05 236.4426902 0,0 0.5804093,-0.975 L0.925,-0.975 A0.05,0.05 270 0,1 0.975,-0.925 L0.975,0.925 A0.05,0.05 0 0,1 0.925,0.975 L-0.925,0.975 A0.05,0.05 90 0,1 -0.975,0.925 L-0.975,-0.925 A0.05,0.05 180 0,1 -0.925,-0.975z" transform="matrix(1,0,0,-1,7.86625,1.555)" stroke="rgb(100,100,100)" stroke-width="0.0010cm" stroke-linecap="round" stroke-linejoin="round" fill="none"></path><path d="M-1.803,-3.6785 L-1.803,-3.1305 A0.05,0.05 0 0,1 -1.853,-3.0805 L-6.7805,-3.0805 A0.05,0.05 90 0,1 -6.8305,-3.1305 L-6.8305,-3.6785 A0.05,0.05 180 0,1 -6.7805,-3.7285 L-1.853,-3.7285 A0.05,0.05 270 0,1 -1.803,-3.6785z" transform="matrix(1,0,0,-1,7.86625,1.555)" stroke="rgb(100,100,100)" stroke-width="0.0010cm" stroke-linecap="round" stroke-linejoin="round" fill="none"></path><path d="M1.93375,-4.295 L1.93375,1.305 A0.25,0.25 0 0,1 1.68375,1.555 L-7.61625,1.555 A0.25,0.25 90 0,1 -7.86625,1.305 L-7.86625,-4.295 A0.25,0.25 180 0,1 -7.61625,-4.545 L1.68375,-4.545 A0.25,0.25 270 0,1 1.93375,-4.295z" transform="matrix(1,0,0,-1,7.86625,1.555)" stroke="rgb(100,100,100)" stroke-width="0.0010cm" stroke-linecap="round" stroke-linejoin="round" fill="none"></path><path d="M-0.8855,-3.038 L-0.8855,-3.013 -0.9945,-3.013 -1.0705,-3.013 -1.2995,-3.013 -1.2995,-3.2545 -1.2995,-3.5845 -1.2995,-3.826 -1.0705,-3.826 A0.038,0.038 180 0,1 -0.9945,-3.826 L0.8995,-3.826 A0.038,0.038 180 0,1 0.9755,-3.826 L1.2045,-3.826 1.2045,-3.5845 1.2045,-3.2545 1.2045,-3.013 0.9755,-3.013 0.8995,-3.013 -0.4795,-3.013 -0.4795,-3.038 -0.6115,-3.038 -0.7535,-3.038 -0.8855,-3.038z" transform="matrix(1,0,0,-1,7.86625,1.555)" stroke="rgb(100,100,100)" stroke-width="0.0010cm" stroke-linecap="round" stroke-linejoin="round" fill="none"></path><path d="M0.68085,-3.261 L0.68085,-3.25885 0.74815,-3.25885 0.74815,-3.261 0.746,-3.261 0.7414014,-3.261 0.6875986,-3.261 0.683,-3.261 0.68085,-3.261z" transform="matrix(1,0,0,-1,7.86625,1.555)" stroke="rgb(100,100,100)" stroke-width="0.0010cm" stroke-linecap="round" stroke-linejoin="round" fill="none"></path><path d="M0.746,-3.324 L0.74815,-3.324 0.74815,-3.32615 0.68085,-3.32615 0.68085,-3.324 0.683,-3.324 0.6875986,-3.324 0.7414014,-3.324 0.746,-3.324z" transform="matrix(1,0,0,-1,7.86625,1.555)" stroke="rgb(100,100,100)" stroke-width="0.0010cm" stroke-linecap="round" stroke-linejoin="round" fill="none"></path><path d="M0.68085,-3.515 L0.68085,-3.51285 0.74815,-3.51285 0.74815,-3.515 0.746,-3.515 0.7414014,-3.515 0.6875986,-3.515 0.683,-3.515 0.68085,-3.515z" transform="matrix(1,0,0,-1,7.86625,1.555)" stroke="rgb(100,100,100)" stroke-width="0.0010cm" stroke-linecap="round" stroke-linejoin="round" fill="none"></path><path d="M0.746,-3.578 L0.74815,-3.578 0.74815,-3.58015 0.68085,-3.58015 0.68085,-3.578 0.683,-3.578 0.6875986,-3.578 0.7414014,-3.578 0.746,-3.578z" transform="matrix(1,0,0,-1,7.86625,1.555)" stroke="rgb(100,100,100)" stroke-width="0.0010cm" stroke-linecap="round" stroke-linejoin="round" fill="none"></path><path d="M0.42685,-3.261 L0.42685,-3.25885 0.49415,-3.25885 0.49415,-3.261 0.492,-3.261 0.4874014,-3.261 0.4335986,-3.261 0.429,-3.261 0.42685,-3.261z" transform="matrix(1,0,0,-1,7.86625,1.555)" stroke="rgb(100,100,100)" stroke-width="0.0010cm" stroke-linecap="round" stroke-linejoin="round" fill="none"></path><path d="M0.492,-3.324 L0.49415,-3.324 0.49415,-3.32615 0.42685,-3.32615 0.42685,-3.324 0.429,-3.324 0.4335986,-3.324 0.4874014,-3.324 0.492,-3.324z" transform="matrix(1,0,0,-1,7.86625,1.555)" stroke="rgb(100,100,100)" stroke-width="0.0010cm" stroke-linecap="round" stroke-linejoin="round" fill="none"></path><path d="M0.42685,-3.515 L0.42685,-3.51285 0.49415,-3.51285 0.49415,-3.515 0.492,-3.515 0.4874014,-3.515 0.4335986,-3.515 0.429,-3.515 0.42685,-3.515z" transform="matrix(1,0,0,-1,7.86625,1.555)" stroke="rgb(100,100,100)" stroke-width="0.0010cm" stroke-linecap="round" stroke-linejoin="round" fill="none"></path><path d="M0.492,-3.578 L0.49415,-3.578 0.49415,-3.58015 0.42685,-3.58015 0.42685,-3.578 0.429,-3.578 0.4335986,-3.578 0.4874014,-3.578 0.492,-3.578z" transform="matrix(1,0,0,-1,7.86625,1.555)" stroke="rgb(100,100,100)" stroke-width="0.0010cm" stroke-linecap="round" stroke-linejoin="round" fill="none"></path><path d="M0.17285,-3.261 L0.17285,-3.25885 0.24015,-3.25885 0.24015,-3.261 0.238,-3.261 0.2334014,-3.261 0.1795986,-3.261 0.175,-3.261 0.17285,-3.261z" transform="matrix(1,0,0,-1,7.86625,1.555)" stroke="rgb(100,100,100)" stroke-width="0.0010cm" stroke-linecap="round" stroke-linejoin="round" fill="none"></path><path d="M0.238,-3.324 L0.24015,-3.324 0.24015,-3.32615 0.17285,-3.32615 0.17285,-3.324 0.175,-3.324 0.1795986,-3.324 0.2334014,-3.324 0.238,-3.324z" transform="matrix(1,0,0,-1,7.86625,1.555)" stroke="rgb(100,100,100)" stroke-width="0.0010cm" stroke-linecap="round" stroke-linejoin="round" fill="none"></path><path d="M0.17285,-3.515 L0.17285,-3.51285 0.24015,-3.51285 0.24015,-3.515 0.238,-3.515 0.2334014,-3.515 0.1795986,-3.515 0.175,-3.515 0.17285,-3.515z" transform="matrix(1,0,0,-1,7.86625,1.555)" stroke="rgb(100,100,100)" stroke-width="0.0010cm" stroke-linecap="round" stroke-linejoin="round" fill="none"></path><path d="M0.238,-3.578 L0.24015,-3.578 0.24015,-3.58015 0.17285,-3.58015 0.17285,-3.578 0.175,-3.578 0.1795986,-3.578 0.2334014,-3.578 0.238,-3.578z" transform="matrix(1,0,0,-1,7.86625,1.555)" stroke="rgb(100,100,100)" stroke-width="0.0010cm" stroke-linecap="round" stroke-linejoin="round" fill="none"></path><path d="M-0.08115,-3.261 L-0.08115,-3.25885 -0.01385,-3.25885 -0.01385,-3.261 -0.016,-3.261 -0.0205986,-3.261 -0.0744014,-3.261 -0.079,-3.261 -0.08115,-3.261z" transform="matrix(1,0,0,-1,7.86625,1.555)" stroke="rgb(100,100,100)" stroke-width="0.0010cm" stroke-linecap="round" stroke-linejoin="round" fill="none"></path><path d="M-0.016,-3.324 L-0.01385,-3.324 -0.01385,-3.32615 -0.08115,-3.32615 -0.08115,-3.324 -0.079,-3.324 -0.0744014,-3.324 -0.0205986,-3.324 -0.016,-3.324z" transform="matrix(1,0,0,-1,7.86625,1.555)" stroke="rgb(100,100,100)" stroke-width="0.0010cm" stroke-linecap="round" stroke-linejoin="round" fill="none"></path><path d="M-0.08115,-3.515 L-0.08115,-3.51285 -0.01385,-3.51285 -0.01385,-3.515 -0.016,-3.515 -0.0205986,-3.515 -0.0744014,-3.515 -0.079,-3.515 -0.08115,-3.515z" transform="matrix(1,0,0,-1,7.86625,1.555)" stroke="rgb(100,100,100)" stroke-width="0.0010cm" stroke-linecap="round" stroke-linejoin="round" fill="none"></path><path d="M-0.016,-3.578 L-0.01385,-3.578 -0.01385,-3.58015 -0.08115,-3.58015 -0.08115,-3.578 -0.079,-3.578 -0.0744014,-3.578 -0.0205986,-3.578 -0.016,-3.578z" transform="matrix(1,0,0,-1,7.86625,1.555)" stroke="rgb(100,100,100)" stroke-width="0.0010cm" stroke-linecap="round" stroke-linejoin="round" fill="none"></path><path d="M-0.33515,-3.261 L-0.33515,-3.25885 -0.26785,-3.25885 -0.26785,-3.261 -0.27,-3.261 -0.2745986,-3.261 -0.3284014,-3.261 -0.333,-3.261 -0.33515,-3.261z" transform="matrix(1,0,0,-1,7.86625,1.555)" stroke="rgb(100,100,100)" stroke-width="0.0010cm" stroke-linecap="round" stroke-linejoin="round" fill="none"></path><path d="M-0.27,-3.324 L-0.26785,-3.324 -0.26785,-3.32615 -0.33515,-3.32615 -0.33515,-3.324 -0.333,-3.324 -0.3284014,-3.324 -0.2745986,-3.324 -0.27,-3.324z" transform="matrix(1,0,0,-1,7.86625,1.555)" stroke="rgb(100,100,100)" stroke-width="0.0010cm" stroke-linecap="round" stroke-linejoin="round" fill="none"></path><path d="M-0.33515,-3.515 L-0.33515,-3.51285 -0.26785,-3.51285 -0.26785,-3.515 -0.27,-3.515 -0.2745986,-3.515 -0.3284014,-3.515 -0.333,-3.515 -0.33515,-3.515z" transform="matrix(1,0,0,-1,7.86625,1.555)" stroke="rgb(100,100,100)" stroke-width="0.0010cm" stroke-linecap="round" stroke-linejoin="round" fill="none"></path><path d="M-0.27,-3.578 L-0.26785,-3.578 -0.26785,-3.58015 -0.33515,-3.58015 -0.33515,-3.578 -0.333,-3.578 -0.3284014,-3.578 -0.2745986,-3.578 -0.27,-3.578z" transform="matrix(1,0,0,-1,7.86625,1.555)" stroke="rgb(100,100,100)" stroke-width="0.0010cm" stroke-linecap="round" stroke-linejoin="round" fill="none"></path><path d="M-0.58915,-3.261 L-0.58915,-3.25885 -0.52185,-3.25885 -0.52185,-3.261 -0.524,-3.261 -0.5285986,-3.261 -0.5824014,-3.261 -0.587,-3.261 -0.58915,-3.261z" transform="matrix(1,0,0,-1,7.86625,1.555)" stroke="rgb(100,100,100)" stroke-width="0.0010cm" stroke-linecap="round" stroke-linejoin="round" fill="none"></path><path d="M-0.524,-3.324 L-0.52185,-3.324 -0.52185,-3.32615 -0.58915,-3.32615 -0.58915,-3.324 -0.587,-3.324 -0.5824014,-3.324 -0.5285986,-3.324 -0.524,-3.324z" transform="matrix(1,0,0,-1,7.86625,1.555)" stroke="rgb(100,100,100)" stroke-width="0.0010cm" stroke-linecap="round" stroke-linejoin="round" fill="none"></path><path d="M-0.58915,-3.515 L-0.58915,-3.51285 -0.52185,-3.51285 -0.52185,-3.515 -0.524,-3.515 -0.5285986,-3.515 -0.5824014,-3.515 -0.587,-3.515 -0.58915,-3.515z" transform="matrix(1,0,0,-1,7.86625,1.555)" stroke="rgb(100,100,100)" stroke-width="0.0010cm" stroke-linecap="round" stroke-linejoin="round" fill="none"></path><path d="M-0.524,-3.578 L-0.52185,-3.578 -0.52185,-3.58015 -0.58915,-3.58015 -0.58915,-3.578 -0.587,-3.578 -0.5824014,-3.578 -0.5285986,-3.578 -0.524,-3.578z" transform="matrix(1,0,0,-1,7.86625,1.555)" stroke="rgb(100,100,100)" stroke-width="0.0010cm" stroke-linecap="round" stroke-linejoin="round" fill="none"></path><path d="M-0.84315,-3.261 L-0.84315,-3.25885 -0.77585,-3.25885 -0.77585,-3.261 -0.778,-3.261 -0.7825986,-3.261 -0.8364014,-3.261 -0.841,-3.261 -0.84315,-3.261z" transform="matrix(1,0,0,-1,7.86625,1.555)" stroke="rgb(100,100,100)" stroke-width="0.0010cm" stroke-linecap="round" stroke-linejoin="round" fill="none"></path><path d="M-0.778,-3.324 L-0.77585,-3.324 -0.77585,-3.32615 -0.84315,-3.32615 -0.84315,-3.324 -0.841,-3.324 -0.8364014,-3.324 -0.7825986,-3.324 -0.778,-3.324z" transform="matrix(1,0,0,-1,7.86625,1.555)" stroke="rgb(100,100,100)" stroke-width="0.0010cm" stroke-linecap="round" stroke-linejoin="round" fill="none"></path><path d="M-0.84315,-3.515 L-0.84315,-3.51285 -0.77585,-3.51285 -0.77585,-3.515 -0.778,-3.515 -0.7825986,-3.515 -0.8364014,-3.515 -0.841,-3.515 -0.84315,-3.515z" transform="matrix(1,0,0,-1,7.86625,1.555)" stroke="rgb(100,100,100)" stroke-width="0.0010cm" stroke-linecap="round" stroke-linejoin="round" fill="none"></path><path d="M-0.778,-3.578 L-0.77585,-3.578 -0.77585,-3.58015 -0.84315,-3.58015 -0.84315,-3.578 -0.841,-3.578 -0.8364014,-3.578 -0.7825986,-3.578 -0.778,-3.578z" transform="matrix(1,0,0,-1,7.86625,1.555)" stroke="rgb(100,100,100)" stroke-width="0.0010cm" stroke-linecap="round" stroke-linejoin="round" fill="none"></path><path d="M-2.127,-3.1734 L-2.127,-3.6306 -2.1016,-3.656 -1.8984,-3.656 -1.873,-3.6306 -1.873,-3.1734 -1.8984,-3.148 -2.1016,-3.148 -2.127,-3.1734z" transform="matrix(1,0,0,-1,7.86625,1.555)" stroke="rgb(100,100,100)" stroke-width="0.0010cm" stroke-linecap="round" stroke-linejoin="round" fill="none"></path><path d="M-2.7191,-3.402 L-2.7445,-3.4274 -2.7445,-3.6306 -2.7191,-3.656 -2.2619,-3.656 -2.2365,-3.6306 -2.2365,-3.4274 -2.2619,-3.402 -2.2365,-3.3766 -2.2365,-3.1734 -2.2619,-3.148 -2.7191,-3.148 -2.7445,-3.1734 -2.7445,-3.3766 -2.7191,-3.402z" transform="matrix(1,0,0,-1,7.86625,1.555)" stroke="rgb(100,100,100)" stroke-width="0.0010cm" stroke-linecap="round" stroke-linejoin="round" fill="none"></path><path d="M-3.356,-3.1505 L-3.356,-3.2351667 -3.356,-3.5738333 -3.356,-3.6585 -2.848,-3.6585 -2.848,-3.5738333 -2.848,-3.2351667 -2.848,-3.1505 -3.356,-3.1505z" transform="matrix(1,0,0,-1,7.86625,1.555)" stroke="rgb(100,100,100)" stroke-width="0.0010cm" stroke-linecap="round" stroke-linejoin="round" fill="none"></path><path d="M-6.7605,-3.1505 L-6.7605,-3.2351667 -6.7605,-3.5738333 -6.7605,-3.6585 -3.4585,-3.6585 -3.4585,-3.5738333 -3.4585,-3.2351667 -3.4585,-3.1505 -6.7605,-3.1505z" transform="matrix(1,0,0,-1,7.86625,1.555)" stroke="rgb(100,100,100)" stroke-width="0.0010cm" stroke-linecap="round" stroke-linejoin="round" fill="none"></path></svg>